<svg width="147" height="75" viewBox="0 0 147 75" fill="none" xmlns="http://www.w3.org/2000/svg">
<path d="M3.904 69V35.464H12.48V69H3.904ZM3.904 30.792V22.28H12.48V30.792H3.904Z" fill="black"/>
<path d="M37.384 44.896C39.176 45.1947 40.7333 45.8773 42.056 46.944C43.3787 47.968 44.4027 49.2907 45.128 50.912C45.896 52.5333 46.28 54.3253 46.28 56.288C46.28 58.9333 45.5973 61.2373 44.232 63.2C42.8667 65.1627 40.9253 66.6773 38.408 67.744C35.9333 68.8533 33.0107 69.408 29.64 69.408C26.3973 69.408 23.5173 68.8747 21 67.808C18.5253 66.784 16.456 65.2693 14.792 63.264L19.656 57.184C20.7653 58.5493 22.088 59.616 23.624 60.384C25.2027 61.1947 27.1227 61.6 29.384 61.6C31.9867 61.6 33.9707 61.0667 35.336 60C36.7013 58.976 37.384 57.4187 37.384 55.328C37.384 53.1093 36.5947 51.4027 35.016 50.208C33.4373 49.0133 31.048 48.416 27.848 48.416H26.056V42.016H28.04C30.6427 42.016 32.6693 41.4187 34.12 40.224C35.6133 39.0293 36.36 37.536 36.36 35.744C36.36 34.592 36.0827 33.632 35.528 32.864C34.9733 32.096 34.2053 31.52 33.224 31.136C32.2853 30.752 31.176 30.56 29.896 30.56C27.976 30.56 26.2267 31.008 24.648 31.904C23.0693 32.8 21.7893 34.0587 20.808 35.68L15.432 29.664C16.328 28.3413 17.544 27.2107 19.08 26.272C20.6587 25.2907 22.4507 24.5227 24.456 23.968C26.504 23.4133 28.6373 23.136 30.856 23.136C33.7573 23.136 36.296 23.6053 38.472 24.544C40.6907 25.4827 42.4187 26.8053 43.656 28.512C44.8933 30.2187 45.512 32.2027 45.512 34.464C45.512 36.128 45.1707 37.7067 44.488 39.2C43.8053 40.6933 42.8453 41.952 41.608 42.976C40.4133 43.9573 39.0053 44.5973 37.384 44.896Z" fill="black"/>
<path d="M82.288 53.832C82.288 56.776 81.5413 59.4427 80.048 61.832C78.5973 64.2213 76.6133 66.12 74.096 67.528C71.6213 68.936 68.8053 69.64 65.648 69.64C62.2347 69.64 59.2693 68.808 56.752 67.144C54.2773 65.48 52.3573 63.0907 50.992 59.976C49.6267 56.8613 48.944 53.128 48.944 48.776C48.944 43.272 49.648 38.6213 51.056 34.824C52.5067 30.984 54.5547 28.104 57.2 26.184C59.8453 24.2213 62.96 23.24 66.544 23.24C69.4027 23.24 72.0267 23.8587 74.416 25.096C76.848 26.3333 78.896 28.104 80.56 30.408L75.632 35.784C74.608 34.2053 73.2853 32.968 71.664 32.072C70.0427 31.1333 68.2933 30.664 66.416 30.664C64.496 30.664 62.832 31.176 61.424 32.2C60.016 33.224 58.928 34.7173 58.16 36.68C57.392 38.6 56.9653 40.9253 56.88 43.656C57.4773 42.632 58.2453 41.7573 59.184 41.032C60.1227 40.264 61.2107 39.688 62.448 39.304C63.6853 38.8773 65.008 38.664 66.416 38.664C69.4453 38.664 72.1547 39.3467 74.544 40.712C76.9333 42.0347 78.8107 43.848 80.176 46.152C81.584 48.4133 82.288 50.9733 82.288 53.832ZM65.648 62.408C67.184 62.408 68.592 62.024 69.872 61.256C71.152 60.4453 72.176 59.4 72.944 58.12C73.712 56.7973 74.096 55.368 74.096 53.832C74.096 52.296 73.712 50.9093 72.944 49.672C72.176 48.392 71.152 47.3893 69.872 46.664C68.6347 45.896 67.248 45.512 65.712 45.512C64.176 45.512 62.768 45.896 61.488 46.664C60.208 47.3893 59.184 48.392 58.416 49.672C57.6907 50.9093 57.328 52.296 57.328 53.832C57.328 55.368 57.712 56.7973 58.48 58.12C59.248 59.4 60.272 60.4453 61.552 61.256C62.832 62.024 64.1973 62.408 65.648 62.408Z" fill="black"/>
<path d="M99.768 69.536C96.4827 69.536 93.5173 68.832 90.872 67.424C88.2267 66.016 86.2213 64.096 84.856 61.664L89.784 56.544C90.9787 58.208 92.472 59.5307 94.264 60.512C96.056 61.4933 97.912 61.984 99.832 61.984C101.368 61.984 102.712 61.664 103.864 61.024C105.059 60.384 105.997 59.488 106.68 58.336C107.363 57.184 107.704 55.8613 107.704 54.368C107.704 52.8747 107.384 51.5733 106.744 50.464C106.104 49.3547 105.229 48.5013 104.12 47.904C103.011 47.264 101.752 46.944 100.344 46.944C98.936 46.944 97.6133 47.264 96.376 47.904C95.1813 48.5013 94.2213 49.376 93.496 50.528H86.008L91.256 23.456H113.656V31.264H97.464L95.608 41.44C96.1627 40.928 96.9307 40.5013 97.912 40.16C98.8933 39.776 100.109 39.584 101.56 39.584C104.419 39.584 106.979 40.2027 109.24 41.44C111.501 42.6773 113.272 44.4053 114.552 46.624C115.832 48.8 116.472 51.3173 116.472 54.176C116.472 57.2053 115.747 59.872 114.296 62.176C112.845 64.5227 110.861 66.336 108.344 67.616C105.827 68.896 102.968 69.536 99.768 69.536ZM141.624 33.824V40.736H135.032V47.968H127.288V40.736H120.696V33.824H127.288V26.592H135.032V33.824H141.624Z" fill="black"/>
</svg>
