<svg width="140" height="140" viewBox="0 0 140 140" fill="none" xmlns="http://www.w3.org/2000/svg">
<path d="M40.7108 17.9317C45.8736 17.052 51.1681 17.3422 56.2039 18.7809C61.2397 20.2195 65.8884 22.77 69.8074 26.2442L70.0233 26.4367L70.2216 26.2617C73.9619 22.9793 78.3592 20.5322 83.1201 19.0837C87.881 17.6352 92.8961 17.2186 97.8308 17.8617L99.2658 18.0717C105.486 19.1457 111.3 21.8818 116.092 25.9903C120.884 30.0988 124.476 35.4267 126.487 41.4099C128.498 47.3931 128.853 53.8088 127.516 59.9776C126.178 66.1464 123.198 71.8387 118.889 76.4517L117.839 77.5309L117.559 77.77L74.1008 120.814C73.0979 121.807 71.7692 122.402 70.3609 122.49C68.9526 122.578 67.5602 122.153 66.4416 121.293L65.8933 120.814L22.1841 77.5192C17.5537 73.0139 14.2607 67.3148 12.6697 61.0533C11.0787 54.7917 11.2518 48.2119 13.17 42.0427C15.0881 35.8735 18.6763 30.3555 23.5372 26.0999C28.3981 21.8444 34.3421 19.0173 40.7108 17.9317Z" fill="#F15F33"/>
</svg>
