<svg width="140" height="140" viewBox="0 0 140 140" fill="none" xmlns="http://www.w3.org/2000/svg">
<path d="M91.8752 70C86.2533 70 80.8174 67.4898 76.5627 62.9344C72.4256 58.491 69.899 52.5656 69.4533 46.2547C68.9775 39.5227 71.0311 33.332 75.2338 28.8203C79.4365 24.3086 85.3127 21.875 91.8752 21.875C98.3912 21.875 104.284 24.3523 108.473 28.8531C112.703 33.3977 114.762 39.5773 114.286 46.252C113.829 52.5711 111.306 58.4938 107.177 62.9316C102.933 67.4898 97.4998 70 91.8752 70ZM127.922 118.125H55.8306C54.6716 118.131 53.5265 117.871 52.4836 117.366C51.4407 116.86 50.5278 116.121 49.815 115.207C49.059 114.217 48.5369 113.067 48.2878 111.846C48.0387 110.625 48.0691 109.363 48.3767 108.155C50.6791 98.9106 56.383 91.2434 64.8705 85.9852C72.4037 81.3203 81.9932 78.75 91.8752 78.75C101.951 78.75 111.289 81.2109 118.866 85.8731C127.373 91.1039 133.085 98.8148 135.376 108.172C135.68 109.381 135.707 110.642 135.455 111.863C135.204 113.083 134.679 114.231 133.922 115.221C133.21 116.131 132.299 116.866 131.259 117.369C130.219 117.872 129.078 118.131 127.922 118.125ZM40.1955 71.0938C30.5732 71.0938 22.1131 62.1469 21.3283 51.152C20.94 45.5191 22.6955 40.3102 26.2502 36.4902C29.7666 32.7086 34.7267 30.625 40.1955 30.625C45.6642 30.625 50.5861 32.7195 54.1217 36.5231C57.7037 40.3731 59.4537 45.5711 59.0435 51.1574C58.2588 62.1496 49.8014 71.0938 40.1955 71.0938ZM58.1494 79.6934C53.3396 77.3418 47.0971 76.166 40.1982 76.166C32.1428 76.166 24.3197 78.266 18.1674 82.0777C11.192 86.4063 6.49979 92.709 4.60486 100.319C4.32756 101.413 4.30133 102.556 4.52814 103.663C4.75495 104.769 5.22893 105.809 5.91463 106.706C6.56527 107.542 7.39881 108.216 8.35114 108.679C9.30347 109.142 10.3492 109.38 11.408 109.375H41.7596C42.2718 109.375 42.7678 109.195 43.1611 108.867C43.5544 108.538 43.8199 108.083 43.9115 107.579C43.9416 107.406 43.9799 107.234 44.0236 107.064C46.3424 97.7512 51.7756 89.8817 59.8037 84.1449C60.099 83.9321 60.3365 83.6489 60.4947 83.3211C60.6529 82.9933 60.7267 82.6312 60.7096 82.2676C60.6925 81.904 60.585 81.5504 60.3967 81.2389C60.2084 80.9274 59.9454 80.6678 59.6314 80.4836C59.2021 80.232 58.7099 79.9668 58.1494 79.6934Z" fill="#F15F33"/>
</svg>
