<svg width="140" height="140" viewBox="0 0 140 140" fill="none" xmlns="http://www.w3.org/2000/svg">
<path d="M78.3825 106.61C84.1458 95.7483 103.355 95.7483 103.355 95.7483C123.375 95.5383 126.082 83.3816 127.89 77.2391C126.295 89.9624 120.555 101.806 111.556 110.941C102.557 120.076 90.8005 125.994 78.1025 127.779C76.2183 123.812 73.99 114.887 78.3825 106.61Z" fill="#F15F33"/>
<path d="M29.2016 34.0317L26.7982 31.9783C26.6017 31.8059 26.4111 31.6269 26.2266 31.4417C16.8243 42.0833 11.6448 55.7998 11.6666 70C11.6666 101.85 37.1991 127.75 68.9149 128.322C66.8557 122.167 65.5082 112.198 70.6532 102.509C75.3782 93.6075 84.8866 90.1017 90.9416 88.6083C94.8862 87.6565 98.9195 87.1189 102.976 87.0042H103.285C111.341 86.9108 114.467 84.5367 115.908 82.9092C117.693 80.9025 118.393 78.5225 119.367 75.2033L119.496 74.7717C120.05 72.8886 121.22 71.2465 122.82 70.1092C124.42 68.9718 126.355 68.4054 128.316 68.5008C127.976 54.5053 122.595 41.103 113.161 30.7592C112.974 31.7917 112.752 32.76 112.537 33.6117C111.545 37.4675 109.888 41.6325 107.847 44.7242C105.857 47.7575 102.311 50.4583 99.9599 52.15C98.1807 53.4275 96.3607 54.4833 94.8674 55.3525L94.3307 55.6617C92.9774 56.4375 91.9041 57.0617 90.8774 57.7325C88.8007 59.1033 87.5524 60.3225 86.7124 61.9733C87.2257 63.8517 87.5874 66.0158 87.5991 68.2733C87.6107 73.6517 84.8574 77.8983 81.5732 80.5467C78.2639 83.1932 74.1438 84.6187 69.9066 84.5833C52.6982 84.3967 42.6066 70.3558 41.3057 55.895C40.9266 51.6892 39.0366 47.1567 36.3941 42.9333C34.3709 39.6823 31.9552 36.6926 29.2016 34.0317Z" fill="#F15F33"/>
<path d="M50.0209 55.1075C48.93 42.9509 39.5559 31.6225 35 27.4809L32.4917 25.3225C42.9894 16.4837 56.2769 11.6461 70 11.6667C82.915 11.6667 94.85 15.8667 104.51 22.96C105.875 27.1075 103.273 35.77 100.543 39.9117C99.5517 41.4109 97.3117 43.2775 94.85 45.045C89.3084 49.0292 82.3084 50.995 78.75 58.3334C77.8607 60.1809 77.6881 62.2926 78.2659 64.26C78.6159 65.5434 78.8492 66.9375 78.8492 68.2967C78.8609 72.7009 74.4042 75.88 70 75.8334C58.5434 75.7109 51.0417 66.4767 50.0209 55.1075Z" fill="#F15F33"/>
</svg>
